<mxfile host="app.diagrams.net" modified="2024-02-29T08:38:18.590Z" agent="Mozilla/5.0 (Windows NT 10.0; Win64; x64) AppleWebKit/537.36 (KHTML, like Gecko) Chrome/122.0.0.0 Safari/537.36" etag="1WwVGdcVez889P4Lgvh4" version="23.1.8" type="device">
  <diagram name="Page-1" id="t9x0q9P9hegh1RTQgQOG">
    <mxGraphModel dx="2336" dy="338" grid="1" gridSize="10" guides="1" tooltips="1" connect="1" arrows="1" fold="1" page="1" pageScale="1" pageWidth="850" pageHeight="1100" math="0" shadow="0">
      <root>
        <mxCell id="0" />
        <mxCell id="1" parent="0" />
        <mxCell id="6LyJvMosD7-ODAueshQN-3" value="" style="edgeStyle=orthogonalEdgeStyle;rounded=0;orthogonalLoop=1;jettySize=auto;html=1;" edge="1" parent="1" source="6LyJvMosD7-ODAueshQN-1" target="6LyJvMosD7-ODAueshQN-2">
          <mxGeometry relative="1" as="geometry" />
        </mxCell>
        <mxCell id="6LyJvMosD7-ODAueshQN-1" value="start&lt;div&gt;&lt;br/&gt;&lt;/div&gt;" style="ellipse;whiteSpace=wrap;html=1;" vertex="1" parent="1">
          <mxGeometry x="-630" y="380" width="120" height="80" as="geometry" />
        </mxCell>
        <mxCell id="6LyJvMosD7-ODAueshQN-5" value="" style="edgeStyle=orthogonalEdgeStyle;rounded=0;orthogonalLoop=1;jettySize=auto;html=1;" edge="1" parent="1" source="6LyJvMosD7-ODAueshQN-2" target="6LyJvMosD7-ODAueshQN-4">
          <mxGeometry relative="1" as="geometry" />
        </mxCell>
        <mxCell id="6LyJvMosD7-ODAueshQN-2" value="x&lt;br&gt;y&lt;br&gt;z&lt;br&gt;odenilecek mebleg" style="shape=parallelogram;perimeter=parallelogramPerimeter;whiteSpace=wrap;html=1;fixedSize=1;" vertex="1" parent="1">
          <mxGeometry x="-630" y="550" width="190" height="60" as="geometry" />
        </mxCell>
        <mxCell id="6LyJvMosD7-ODAueshQN-7" value="" style="edgeStyle=orthogonalEdgeStyle;rounded=0;orthogonalLoop=1;jettySize=auto;html=1;" edge="1" parent="1" source="6LyJvMosD7-ODAueshQN-4" target="6LyJvMosD7-ODAueshQN-6">
          <mxGeometry relative="1" as="geometry">
            <Array as="points">
              <mxPoint x="-310" y="720" />
              <mxPoint x="-310" y="820" />
              <mxPoint x="-535" y="820" />
            </Array>
          </mxGeometry>
        </mxCell>
        <mxCell id="6LyJvMosD7-ODAueshQN-80" value="true" style="edgeLabel;html=1;align=center;verticalAlign=middle;resizable=0;points=[];" vertex="1" connectable="0" parent="6LyJvMosD7-ODAueshQN-7">
          <mxGeometry x="-0.6385" y="4" relative="1" as="geometry">
            <mxPoint as="offset" />
          </mxGeometry>
        </mxCell>
        <mxCell id="6LyJvMosD7-ODAueshQN-15" value="" style="edgeStyle=orthogonalEdgeStyle;rounded=0;orthogonalLoop=1;jettySize=auto;html=1;" edge="1" parent="1" source="6LyJvMosD7-ODAueshQN-4" target="6LyJvMosD7-ODAueshQN-14">
          <mxGeometry relative="1" as="geometry" />
        </mxCell>
        <mxCell id="6LyJvMosD7-ODAueshQN-81" value="false" style="edgeLabel;html=1;align=center;verticalAlign=middle;resizable=0;points=[];" vertex="1" connectable="0" parent="6LyJvMosD7-ODAueshQN-15">
          <mxGeometry x="-0.3352" y="-3" relative="1" as="geometry">
            <mxPoint as="offset" />
          </mxGeometry>
        </mxCell>
        <mxCell id="6LyJvMosD7-ODAueshQN-4" value="x&amp;gt;y" style="rhombus;whiteSpace=wrap;html=1;" vertex="1" parent="1">
          <mxGeometry x="-580" y="680" width="85" height="80" as="geometry" />
        </mxCell>
        <mxCell id="6LyJvMosD7-ODAueshQN-9" value="" style="edgeStyle=orthogonalEdgeStyle;rounded=0;orthogonalLoop=1;jettySize=auto;html=1;" edge="1" parent="1" source="6LyJvMosD7-ODAueshQN-6" target="6LyJvMosD7-ODAueshQN-8">
          <mxGeometry relative="1" as="geometry" />
        </mxCell>
        <mxCell id="6LyJvMosD7-ODAueshQN-22" value="" style="edgeStyle=orthogonalEdgeStyle;rounded=0;orthogonalLoop=1;jettySize=auto;html=1;" edge="1" parent="1" source="6LyJvMosD7-ODAueshQN-6" target="6LyJvMosD7-ODAueshQN-21">
          <mxGeometry relative="1" as="geometry" />
        </mxCell>
        <mxCell id="6LyJvMosD7-ODAueshQN-6" value="y&amp;gt;z" style="rhombus;whiteSpace=wrap;html=1;" vertex="1" parent="1">
          <mxGeometry x="-575" y="830" width="80" height="80" as="geometry" />
        </mxCell>
        <mxCell id="6LyJvMosD7-ODAueshQN-25" style="edgeStyle=orthogonalEdgeStyle;rounded=0;orthogonalLoop=1;jettySize=auto;html=1;" edge="1" parent="1" source="6LyJvMosD7-ODAueshQN-8" target="6LyJvMosD7-ODAueshQN-24">
          <mxGeometry relative="1" as="geometry">
            <Array as="points">
              <mxPoint x="-375" y="1020" />
            </Array>
          </mxGeometry>
        </mxCell>
        <mxCell id="6LyJvMosD7-ODAueshQN-8" value="odenilecek mebleg = x+y" style="shape=document;whiteSpace=wrap;html=1;boundedLbl=1;" vertex="1" parent="1">
          <mxGeometry x="-435" y="830" width="120" height="80" as="geometry" />
        </mxCell>
        <mxCell id="6LyJvMosD7-ODAueshQN-17" value="" style="edgeStyle=orthogonalEdgeStyle;rounded=0;orthogonalLoop=1;jettySize=auto;html=1;" edge="1" parent="1" source="6LyJvMosD7-ODAueshQN-14">
          <mxGeometry relative="1" as="geometry">
            <mxPoint x="-942.5" y="840.0000000000002" as="targetPoint" />
          </mxGeometry>
        </mxCell>
        <mxCell id="6LyJvMosD7-ODAueshQN-20" value="" style="edgeStyle=orthogonalEdgeStyle;rounded=0;orthogonalLoop=1;jettySize=auto;html=1;" edge="1" parent="1" source="6LyJvMosD7-ODAueshQN-14" target="6LyJvMosD7-ODAueshQN-19">
          <mxGeometry relative="1" as="geometry" />
        </mxCell>
        <mxCell id="6LyJvMosD7-ODAueshQN-14" value="z&amp;lt;x" style="rhombus;whiteSpace=wrap;html=1;" vertex="1" parent="1">
          <mxGeometry x="-1090" y="800" width="85" height="80" as="geometry" />
        </mxCell>
        <mxCell id="6LyJvMosD7-ODAueshQN-28" style="edgeStyle=orthogonalEdgeStyle;rounded=0;orthogonalLoop=1;jettySize=auto;html=1;" edge="1" parent="1" source="6LyJvMosD7-ODAueshQN-18" target="6LyJvMosD7-ODAueshQN-24">
          <mxGeometry relative="1" as="geometry">
            <Array as="points">
              <mxPoint x="-880" y="950" />
              <mxPoint x="-740" y="950" />
            </Array>
          </mxGeometry>
        </mxCell>
        <mxCell id="6LyJvMosD7-ODAueshQN-18" value="odenilecek mebleg = x+y" style="shape=document;whiteSpace=wrap;html=1;boundedLbl=1;" vertex="1" parent="1">
          <mxGeometry x="-940" y="800" width="120" height="80" as="geometry" />
        </mxCell>
        <mxCell id="6LyJvMosD7-ODAueshQN-29" style="edgeStyle=orthogonalEdgeStyle;rounded=0;orthogonalLoop=1;jettySize=auto;html=1;" edge="1" parent="1" source="6LyJvMosD7-ODAueshQN-19" target="6LyJvMosD7-ODAueshQN-24">
          <mxGeometry relative="1" as="geometry">
            <Array as="points">
              <mxPoint x="-1213" y="1020" />
            </Array>
          </mxGeometry>
        </mxCell>
        <mxCell id="6LyJvMosD7-ODAueshQN-19" value="&lt;br&gt;&lt;span style=&quot;color: rgb(0, 0, 0); font-family: Helvetica; font-size: 12px; font-style: normal; font-variant-ligatures: normal; font-variant-caps: normal; font-weight: 400; letter-spacing: normal; orphans: 2; text-align: center; text-indent: 0px; text-transform: none; widows: 2; word-spacing: 0px; -webkit-text-stroke-width: 0px; background-color: rgb(251, 251, 251); text-decoration-thickness: initial; text-decoration-style: initial; text-decoration-color: initial; float: none; display: inline !important;&quot;&gt;odenilecek mebleg = z+y&lt;/span&gt;&lt;div&gt;&lt;br/&gt;&lt;/div&gt;" style="shape=document;whiteSpace=wrap;html=1;boundedLbl=1;" vertex="1" parent="1">
          <mxGeometry x="-1272.5" y="800" width="120" height="80" as="geometry" />
        </mxCell>
        <mxCell id="6LyJvMosD7-ODAueshQN-27" value="" style="edgeStyle=orthogonalEdgeStyle;rounded=0;orthogonalLoop=1;jettySize=auto;html=1;" edge="1" parent="1" source="6LyJvMosD7-ODAueshQN-21" target="6LyJvMosD7-ODAueshQN-24">
          <mxGeometry relative="1" as="geometry" />
        </mxCell>
        <mxCell id="6LyJvMosD7-ODAueshQN-21" value="odenilecek mebleg = z+x" style="shape=document;whiteSpace=wrap;html=1;boundedLbl=1;" vertex="1" parent="1">
          <mxGeometry x="-755" y="830" width="120" height="80" as="geometry" />
        </mxCell>
        <mxCell id="6LyJvMosD7-ODAueshQN-31" style="edgeStyle=orthogonalEdgeStyle;rounded=0;orthogonalLoop=1;jettySize=auto;html=1;" edge="1" parent="1" source="6LyJvMosD7-ODAueshQN-23" target="6LyJvMosD7-ODAueshQN-30">
          <mxGeometry relative="1" as="geometry" />
        </mxCell>
        <mxCell id="6LyJvMosD7-ODAueshQN-23" value="start" style="ellipse;whiteSpace=wrap;html=1;" vertex="1" parent="1">
          <mxGeometry x="2130" y="410" width="120" height="80" as="geometry" />
        </mxCell>
        <mxCell id="6LyJvMosD7-ODAueshQN-24" value="end" style="ellipse;whiteSpace=wrap;html=1;" vertex="1" parent="1">
          <mxGeometry x="-800" y="980" width="120" height="80" as="geometry" />
        </mxCell>
        <mxCell id="6LyJvMosD7-ODAueshQN-33" value="" style="edgeStyle=orthogonalEdgeStyle;rounded=0;orthogonalLoop=1;jettySize=auto;html=1;" edge="1" parent="1" source="6LyJvMosD7-ODAueshQN-30" target="6LyJvMosD7-ODAueshQN-32">
          <mxGeometry relative="1" as="geometry" />
        </mxCell>
        <mxCell id="6LyJvMosD7-ODAueshQN-30" value="x,y,z,t&lt;br&gt;sum" style="shape=parallelogram;perimeter=parallelogramPerimeter;whiteSpace=wrap;html=1;fixedSize=1;" vertex="1" parent="1">
          <mxGeometry x="2125" y="570" width="120" height="60" as="geometry" />
        </mxCell>
        <mxCell id="6LyJvMosD7-ODAueshQN-35" value="" style="edgeStyle=orthogonalEdgeStyle;rounded=0;orthogonalLoop=1;jettySize=auto;html=1;" edge="1" parent="1" source="6LyJvMosD7-ODAueshQN-32" target="6LyJvMosD7-ODAueshQN-34">
          <mxGeometry relative="1" as="geometry" />
        </mxCell>
        <mxCell id="6LyJvMosD7-ODAueshQN-36" value="true" style="edgeLabel;html=1;align=center;verticalAlign=middle;resizable=0;points=[];" vertex="1" connectable="0" parent="6LyJvMosD7-ODAueshQN-35">
          <mxGeometry x="-0.3333" y="3" relative="1" as="geometry">
            <mxPoint as="offset" />
          </mxGeometry>
        </mxCell>
        <mxCell id="6LyJvMosD7-ODAueshQN-32" value="x&amp;gt;0" style="rhombus;whiteSpace=wrap;html=1;" vertex="1" parent="1">
          <mxGeometry x="2145" y="700" width="80" height="80" as="geometry" />
        </mxCell>
        <mxCell id="6LyJvMosD7-ODAueshQN-38" value="" style="edgeStyle=orthogonalEdgeStyle;rounded=0;orthogonalLoop=1;jettySize=auto;html=1;" edge="1" parent="1" source="6LyJvMosD7-ODAueshQN-34">
          <mxGeometry relative="1" as="geometry">
            <mxPoint x="2180" y="970" as="targetPoint" />
            <Array as="points">
              <mxPoint x="2450" y="870" />
              <mxPoint x="2180" y="870" />
            </Array>
          </mxGeometry>
        </mxCell>
        <mxCell id="6LyJvMosD7-ODAueshQN-34" value="sum+=x" style="shape=document;whiteSpace=wrap;html=1;boundedLbl=1;" vertex="1" parent="1">
          <mxGeometry x="2390" y="700" width="120" height="80" as="geometry" />
        </mxCell>
        <mxCell id="6LyJvMosD7-ODAueshQN-39" style="edgeStyle=orthogonalEdgeStyle;rounded=0;orthogonalLoop=1;jettySize=auto;html=1;entryX=0.422;entryY=0.113;entryDx=0;entryDy=0;entryPerimeter=0;" edge="1" parent="1" source="6LyJvMosD7-ODAueshQN-32">
          <mxGeometry relative="1" as="geometry">
            <mxPoint x="2173.76" y="979.04" as="targetPoint" />
            <Array as="points">
              <mxPoint x="1920" y="740" />
              <mxPoint x="1920" y="870" />
              <mxPoint x="2179" y="870" />
            </Array>
          </mxGeometry>
        </mxCell>
        <mxCell id="6LyJvMosD7-ODAueshQN-40" value="false" style="text;html=1;align=center;verticalAlign=middle;resizable=0;points=[];autosize=1;strokeColor=none;fillColor=none;" vertex="1" parent="1">
          <mxGeometry x="2045" y="718" width="50" height="30" as="geometry" />
        </mxCell>
        <mxCell id="6LyJvMosD7-ODAueshQN-41" value="" style="edgeStyle=orthogonalEdgeStyle;rounded=0;orthogonalLoop=1;jettySize=auto;html=1;" edge="1" parent="1" source="6LyJvMosD7-ODAueshQN-43" target="6LyJvMosD7-ODAueshQN-45">
          <mxGeometry relative="1" as="geometry" />
        </mxCell>
        <mxCell id="6LyJvMosD7-ODAueshQN-42" value="true" style="edgeLabel;html=1;align=center;verticalAlign=middle;resizable=0;points=[];" vertex="1" connectable="0" parent="6LyJvMosD7-ODAueshQN-41">
          <mxGeometry x="-0.3333" y="3" relative="1" as="geometry">
            <mxPoint as="offset" />
          </mxGeometry>
        </mxCell>
        <mxCell id="6LyJvMosD7-ODAueshQN-43" value="y&amp;gt;0" style="rhombus;whiteSpace=wrap;html=1;" vertex="1" parent="1">
          <mxGeometry x="2135" y="980" width="80" height="80" as="geometry" />
        </mxCell>
        <mxCell id="6LyJvMosD7-ODAueshQN-44" value="" style="edgeStyle=orthogonalEdgeStyle;rounded=0;orthogonalLoop=1;jettySize=auto;html=1;" edge="1" parent="1" source="6LyJvMosD7-ODAueshQN-45">
          <mxGeometry relative="1" as="geometry">
            <mxPoint x="2170" y="1250" as="targetPoint" />
            <Array as="points">
              <mxPoint x="2440" y="1150" />
              <mxPoint x="2170" y="1150" />
            </Array>
          </mxGeometry>
        </mxCell>
        <mxCell id="6LyJvMosD7-ODAueshQN-45" value="sum+=y" style="shape=document;whiteSpace=wrap;html=1;boundedLbl=1;" vertex="1" parent="1">
          <mxGeometry x="2380" y="980" width="120" height="80" as="geometry" />
        </mxCell>
        <mxCell id="6LyJvMosD7-ODAueshQN-46" style="edgeStyle=orthogonalEdgeStyle;rounded=0;orthogonalLoop=1;jettySize=auto;html=1;" edge="1" parent="1" source="6LyJvMosD7-ODAueshQN-43">
          <mxGeometry relative="1" as="geometry">
            <mxPoint x="2170" y="1250" as="targetPoint" />
            <Array as="points">
              <mxPoint x="1910" y="1020" />
              <mxPoint x="1910" y="1150" />
              <mxPoint x="2169" y="1150" />
            </Array>
          </mxGeometry>
        </mxCell>
        <mxCell id="6LyJvMosD7-ODAueshQN-47" value="false" style="text;html=1;align=center;verticalAlign=middle;resizable=0;points=[];autosize=1;strokeColor=none;fillColor=none;" vertex="1" parent="1">
          <mxGeometry x="2035" y="998" width="50" height="30" as="geometry" />
        </mxCell>
        <mxCell id="6LyJvMosD7-ODAueshQN-48" value="" style="edgeStyle=orthogonalEdgeStyle;rounded=0;orthogonalLoop=1;jettySize=auto;html=1;" edge="1" parent="1" source="6LyJvMosD7-ODAueshQN-50" target="6LyJvMosD7-ODAueshQN-52">
          <mxGeometry relative="1" as="geometry" />
        </mxCell>
        <mxCell id="6LyJvMosD7-ODAueshQN-49" value="true" style="edgeLabel;html=1;align=center;verticalAlign=middle;resizable=0;points=[];" vertex="1" connectable="0" parent="6LyJvMosD7-ODAueshQN-48">
          <mxGeometry x="-0.3333" y="3" relative="1" as="geometry">
            <mxPoint as="offset" />
          </mxGeometry>
        </mxCell>
        <mxCell id="6LyJvMosD7-ODAueshQN-50" value="z&amp;gt;0" style="rhombus;whiteSpace=wrap;html=1;" vertex="1" parent="1">
          <mxGeometry x="2130" y="1250" width="80" height="80" as="geometry" />
        </mxCell>
        <mxCell id="6LyJvMosD7-ODAueshQN-51" value="" style="edgeStyle=orthogonalEdgeStyle;rounded=0;orthogonalLoop=1;jettySize=auto;html=1;" edge="1" parent="1" source="6LyJvMosD7-ODAueshQN-52">
          <mxGeometry relative="1" as="geometry">
            <mxPoint x="2165" y="1520" as="targetPoint" />
            <Array as="points">
              <mxPoint x="2435" y="1420" />
              <mxPoint x="2165" y="1420" />
            </Array>
          </mxGeometry>
        </mxCell>
        <mxCell id="6LyJvMosD7-ODAueshQN-52" value="sum+=z" style="shape=document;whiteSpace=wrap;html=1;boundedLbl=1;" vertex="1" parent="1">
          <mxGeometry x="2375" y="1250" width="120" height="80" as="geometry" />
        </mxCell>
        <mxCell id="6LyJvMosD7-ODAueshQN-53" style="edgeStyle=orthogonalEdgeStyle;rounded=0;orthogonalLoop=1;jettySize=auto;html=1;" edge="1" parent="1" source="6LyJvMosD7-ODAueshQN-50">
          <mxGeometry relative="1" as="geometry">
            <mxPoint x="2165" y="1520" as="targetPoint" />
            <Array as="points">
              <mxPoint x="1905" y="1290" />
              <mxPoint x="1905" y="1420" />
              <mxPoint x="2164" y="1420" />
            </Array>
          </mxGeometry>
        </mxCell>
        <mxCell id="6LyJvMosD7-ODAueshQN-54" value="false" style="text;html=1;align=center;verticalAlign=middle;resizable=0;points=[];autosize=1;strokeColor=none;fillColor=none;" vertex="1" parent="1">
          <mxGeometry x="2030" y="1268" width="50" height="30" as="geometry" />
        </mxCell>
        <mxCell id="6LyJvMosD7-ODAueshQN-55" value="" style="edgeStyle=orthogonalEdgeStyle;rounded=0;orthogonalLoop=1;jettySize=auto;html=1;" edge="1" parent="1" source="6LyJvMosD7-ODAueshQN-57" target="6LyJvMosD7-ODAueshQN-59">
          <mxGeometry relative="1" as="geometry" />
        </mxCell>
        <mxCell id="6LyJvMosD7-ODAueshQN-56" value="true" style="edgeLabel;html=1;align=center;verticalAlign=middle;resizable=0;points=[];" vertex="1" connectable="0" parent="6LyJvMosD7-ODAueshQN-55">
          <mxGeometry x="-0.3333" y="3" relative="1" as="geometry">
            <mxPoint as="offset" />
          </mxGeometry>
        </mxCell>
        <mxCell id="6LyJvMosD7-ODAueshQN-57" value="t&amp;gt;0" style="rhombus;whiteSpace=wrap;html=1;" vertex="1" parent="1">
          <mxGeometry x="2125" y="1520" width="80" height="80" as="geometry" />
        </mxCell>
        <mxCell id="6LyJvMosD7-ODAueshQN-58" value="" style="edgeStyle=orthogonalEdgeStyle;rounded=0;orthogonalLoop=1;jettySize=auto;html=1;" edge="1" parent="1" source="6LyJvMosD7-ODAueshQN-59">
          <mxGeometry relative="1" as="geometry">
            <mxPoint x="2160" y="1790" as="targetPoint" />
            <Array as="points">
              <mxPoint x="2430" y="1690" />
              <mxPoint x="2160" y="1690" />
            </Array>
          </mxGeometry>
        </mxCell>
        <mxCell id="6LyJvMosD7-ODAueshQN-59" value="sum+=t" style="shape=document;whiteSpace=wrap;html=1;boundedLbl=1;" vertex="1" parent="1">
          <mxGeometry x="2370" y="1520" width="120" height="80" as="geometry" />
        </mxCell>
        <mxCell id="6LyJvMosD7-ODAueshQN-60" style="edgeStyle=orthogonalEdgeStyle;rounded=0;orthogonalLoop=1;jettySize=auto;html=1;" edge="1" parent="1" source="6LyJvMosD7-ODAueshQN-57">
          <mxGeometry relative="1" as="geometry">
            <mxPoint x="2160" y="1790" as="targetPoint" />
            <Array as="points">
              <mxPoint x="1900" y="1560" />
              <mxPoint x="1900" y="1690" />
              <mxPoint x="2159" y="1690" />
            </Array>
          </mxGeometry>
        </mxCell>
        <mxCell id="6LyJvMosD7-ODAueshQN-61" value="false" style="text;html=1;align=center;verticalAlign=middle;resizable=0;points=[];autosize=1;strokeColor=none;fillColor=none;" vertex="1" parent="1">
          <mxGeometry x="2025" y="1538" width="50" height="30" as="geometry" />
        </mxCell>
        <mxCell id="6LyJvMosD7-ODAueshQN-64" value="" style="edgeStyle=orthogonalEdgeStyle;rounded=0;orthogonalLoop=1;jettySize=auto;html=1;" edge="1" parent="1" source="6LyJvMosD7-ODAueshQN-62" target="6LyJvMosD7-ODAueshQN-63">
          <mxGeometry relative="1" as="geometry" />
        </mxCell>
        <mxCell id="6LyJvMosD7-ODAueshQN-62" value="sum" style="shape=document;whiteSpace=wrap;html=1;boundedLbl=1;" vertex="1" parent="1">
          <mxGeometry x="2095" y="1790" width="120" height="80" as="geometry" />
        </mxCell>
        <mxCell id="6LyJvMosD7-ODAueshQN-63" value="end" style="ellipse;whiteSpace=wrap;html=1;" vertex="1" parent="1">
          <mxGeometry x="2100" y="1920" width="120" height="80" as="geometry" />
        </mxCell>
        <mxCell id="6LyJvMosD7-ODAueshQN-67" value="" style="edgeStyle=orthogonalEdgeStyle;rounded=0;orthogonalLoop=1;jettySize=auto;html=1;" edge="1" parent="1" source="6LyJvMosD7-ODAueshQN-65" target="6LyJvMosD7-ODAueshQN-66">
          <mxGeometry relative="1" as="geometry" />
        </mxCell>
        <mxCell id="6LyJvMosD7-ODAueshQN-65" value="start" style="ellipse;whiteSpace=wrap;html=1;" vertex="1" parent="1">
          <mxGeometry x="4740" y="510" width="120" height="80" as="geometry" />
        </mxCell>
        <mxCell id="6LyJvMosD7-ODAueshQN-69" value="" style="edgeStyle=orthogonalEdgeStyle;rounded=0;orthogonalLoop=1;jettySize=auto;html=1;" edge="1" parent="1" source="6LyJvMosD7-ODAueshQN-66">
          <mxGeometry relative="1" as="geometry">
            <mxPoint x="4800" y="810" as="targetPoint" />
          </mxGeometry>
        </mxCell>
        <mxCell id="6LyJvMosD7-ODAueshQN-66" value="kmbenzin&lt;br&gt;bakbenzin&lt;br&gt;mesafe&lt;br&gt;check" style="shape=parallelogram;perimeter=parallelogramPerimeter;whiteSpace=wrap;html=1;fixedSize=1;" vertex="1" parent="1">
          <mxGeometry x="4740" y="680" width="120" height="60" as="geometry" />
        </mxCell>
        <mxCell id="6LyJvMosD7-ODAueshQN-72" value="" style="edgeStyle=orthogonalEdgeStyle;rounded=0;orthogonalLoop=1;jettySize=auto;html=1;" edge="1" parent="1" source="6LyJvMosD7-ODAueshQN-70" target="6LyJvMosD7-ODAueshQN-71">
          <mxGeometry relative="1" as="geometry" />
        </mxCell>
        <mxCell id="6LyJvMosD7-ODAueshQN-70" value="check=bakbenzin*kmbenzin-mesafe" style="rounded=0;whiteSpace=wrap;html=1;" vertex="1" parent="1">
          <mxGeometry x="4740" y="810" width="280" height="60" as="geometry" />
        </mxCell>
        <mxCell id="6LyJvMosD7-ODAueshQN-74" value="" style="edgeStyle=orthogonalEdgeStyle;rounded=0;orthogonalLoop=1;jettySize=auto;html=1;" edge="1" parent="1" source="6LyJvMosD7-ODAueshQN-71" target="6LyJvMosD7-ODAueshQN-73">
          <mxGeometry relative="1" as="geometry" />
        </mxCell>
        <mxCell id="6LyJvMosD7-ODAueshQN-76" value="" style="edgeStyle=orthogonalEdgeStyle;rounded=0;orthogonalLoop=1;jettySize=auto;html=1;" edge="1" parent="1" source="6LyJvMosD7-ODAueshQN-71" target="6LyJvMosD7-ODAueshQN-75">
          <mxGeometry relative="1" as="geometry" />
        </mxCell>
        <mxCell id="6LyJvMosD7-ODAueshQN-71" value="check&amp;gt;=0" style="rhombus;whiteSpace=wrap;html=1;rounded=0;" vertex="1" parent="1">
          <mxGeometry x="4840" y="940" width="80" height="80" as="geometry" />
        </mxCell>
        <mxCell id="6LyJvMosD7-ODAueshQN-79" style="edgeStyle=orthogonalEdgeStyle;rounded=0;orthogonalLoop=1;jettySize=auto;html=1;" edge="1" parent="1" source="6LyJvMosD7-ODAueshQN-73" target="6LyJvMosD7-ODAueshQN-77">
          <mxGeometry relative="1" as="geometry">
            <Array as="points">
              <mxPoint x="5050" y="1150" />
            </Array>
          </mxGeometry>
        </mxCell>
        <mxCell id="6LyJvMosD7-ODAueshQN-73" value="gede bilecek" style="shape=document;whiteSpace=wrap;html=1;boundedLbl=1;rounded=0;" vertex="1" parent="1">
          <mxGeometry x="4980" y="940" width="120" height="80" as="geometry" />
        </mxCell>
        <mxCell id="6LyJvMosD7-ODAueshQN-78" value="" style="edgeStyle=orthogonalEdgeStyle;rounded=0;orthogonalLoop=1;jettySize=auto;html=1;" edge="1" parent="1" source="6LyJvMosD7-ODAueshQN-75" target="6LyJvMosD7-ODAueshQN-77">
          <mxGeometry relative="1" as="geometry">
            <Array as="points">
              <mxPoint x="4720" y="1150" />
            </Array>
          </mxGeometry>
        </mxCell>
        <mxCell id="6LyJvMosD7-ODAueshQN-75" value="gede bilmeyecek" style="shape=document;whiteSpace=wrap;html=1;boundedLbl=1;rounded=0;" vertex="1" parent="1">
          <mxGeometry x="4660" y="940" width="120" height="80" as="geometry" />
        </mxCell>
        <mxCell id="6LyJvMosD7-ODAueshQN-77" value="end" style="ellipse;whiteSpace=wrap;html=1;rounded=0;" vertex="1" parent="1">
          <mxGeometry x="4830" y="1110" width="80" height="80" as="geometry" />
        </mxCell>
        <mxCell id="6LyJvMosD7-ODAueshQN-84" value="" style="edgeStyle=orthogonalEdgeStyle;rounded=0;orthogonalLoop=1;jettySize=auto;html=1;" edge="1" parent="1" source="6LyJvMosD7-ODAueshQN-82" target="6LyJvMosD7-ODAueshQN-83">
          <mxGeometry relative="1" as="geometry" />
        </mxCell>
        <mxCell id="6LyJvMosD7-ODAueshQN-82" value="start" style="ellipse;whiteSpace=wrap;html=1;" vertex="1" parent="1">
          <mxGeometry x="5960" y="540" width="120" height="80" as="geometry" />
        </mxCell>
        <mxCell id="6LyJvMosD7-ODAueshQN-86" value="" style="edgeStyle=orthogonalEdgeStyle;rounded=0;orthogonalLoop=1;jettySize=auto;html=1;" edge="1" parent="1" source="6LyJvMosD7-ODAueshQN-83" target="6LyJvMosD7-ODAueshQN-85">
          <mxGeometry relative="1" as="geometry" />
        </mxCell>
        <mxCell id="6LyJvMosD7-ODAueshQN-83" value="a" style="shape=parallelogram;perimeter=parallelogramPerimeter;whiteSpace=wrap;html=1;fixedSize=1;" vertex="1" parent="1">
          <mxGeometry x="5960" y="718" width="120" height="60" as="geometry" />
        </mxCell>
        <mxCell id="6LyJvMosD7-ODAueshQN-88" value="" style="edgeStyle=orthogonalEdgeStyle;rounded=0;orthogonalLoop=1;jettySize=auto;html=1;" edge="1" parent="1" source="6LyJvMosD7-ODAueshQN-85" target="6LyJvMosD7-ODAueshQN-87">
          <mxGeometry relative="1" as="geometry" />
        </mxCell>
        <mxCell id="6LyJvMosD7-ODAueshQN-94" value="true" style="edgeLabel;html=1;align=center;verticalAlign=middle;resizable=0;points=[];" vertex="1" connectable="0" parent="6LyJvMosD7-ODAueshQN-88">
          <mxGeometry x="0.0098" relative="1" as="geometry">
            <mxPoint as="offset" />
          </mxGeometry>
        </mxCell>
        <mxCell id="6LyJvMosD7-ODAueshQN-90" value="" style="edgeStyle=orthogonalEdgeStyle;rounded=0;orthogonalLoop=1;jettySize=auto;html=1;" edge="1" parent="1" source="6LyJvMosD7-ODAueshQN-85" target="6LyJvMosD7-ODAueshQN-89">
          <mxGeometry relative="1" as="geometry" />
        </mxCell>
        <mxCell id="6LyJvMosD7-ODAueshQN-95" value="false" style="edgeLabel;html=1;align=center;verticalAlign=middle;resizable=0;points=[];" vertex="1" connectable="0" parent="6LyJvMosD7-ODAueshQN-90">
          <mxGeometry x="0.1591" y="-2" relative="1" as="geometry">
            <mxPoint as="offset" />
          </mxGeometry>
        </mxCell>
        <mxCell id="6LyJvMosD7-ODAueshQN-85" value="k(a)%2==0 || k(a)%2==1" style="rhombus;whiteSpace=wrap;html=1;" vertex="1" parent="1">
          <mxGeometry x="5980" y="848" width="140" height="122" as="geometry" />
        </mxCell>
        <mxCell id="6LyJvMosD7-ODAueshQN-93" style="edgeStyle=orthogonalEdgeStyle;rounded=0;orthogonalLoop=1;jettySize=auto;html=1;entryX=0.5;entryY=0;entryDx=0;entryDy=0;" edge="1" parent="1" source="6LyJvMosD7-ODAueshQN-87" target="6LyJvMosD7-ODAueshQN-91">
          <mxGeometry relative="1" as="geometry">
            <Array as="points">
              <mxPoint x="6270" y="1070" />
            </Array>
          </mxGeometry>
        </mxCell>
        <mxCell id="6LyJvMosD7-ODAueshQN-87" value="tam ededdir" style="shape=document;whiteSpace=wrap;html=1;boundedLbl=1;" vertex="1" parent="1">
          <mxGeometry x="6210" y="869" width="120" height="80" as="geometry" />
        </mxCell>
        <mxCell id="6LyJvMosD7-ODAueshQN-89" value="kesr ededdir" style="shape=document;whiteSpace=wrap;html=1;boundedLbl=1;" vertex="1" parent="1">
          <mxGeometry x="5770" y="869" width="120" height="80" as="geometry" />
        </mxCell>
        <mxCell id="6LyJvMosD7-ODAueshQN-91" value="end" style="ellipse;whiteSpace=wrap;html=1;" vertex="1" parent="1">
          <mxGeometry x="5980" y="1070" width="120" height="80" as="geometry" />
        </mxCell>
        <mxCell id="6LyJvMosD7-ODAueshQN-92" style="edgeStyle=orthogonalEdgeStyle;rounded=0;orthogonalLoop=1;jettySize=auto;html=1;entryX=0.285;entryY=0.014;entryDx=0;entryDy=0;entryPerimeter=0;" edge="1" parent="1" source="6LyJvMosD7-ODAueshQN-89" target="6LyJvMosD7-ODAueshQN-91">
          <mxGeometry relative="1" as="geometry">
            <Array as="points">
              <mxPoint x="5850" y="1071" />
            </Array>
          </mxGeometry>
        </mxCell>
      </root>
    </mxGraphModel>
  </diagram>
</mxfile>
